#!OML:ASF F:\VICON\USERDATA\INSTALL\rory3\rory3.ASF
:FULLY-SPECIFIED
:DEGREES
80
root 0.5032910839545417 17.26741488504067 38.90453193333208 2.197999819298267 0.4030757445651607 4.311237847568362
lfemur -6.313365065688231 -2.9981875061891303 -22.843530538364043
ltibia 43.69305746844824
lfoot -2.6872824791760905 -1.2510833018997278
ltoes -4.458600839640343
rfemur -30.614249340351556 2.637054161359385 24.685002595793442
rtibia 65.11217780337483
rfoot -2.0486081393607467 -12.157546503640754
rtoes 2.7300727456753506
lowerback 13.120722296292271 -0.21972745927345821 -2.1686706872656725
upperback -0.593953997449593 -0.5431004514847257 0.9121486314041087
thorax -7.963895357992637 -0.14385741375745587 3.4813137682614954
lowerneck -17.791143936353038 -3.255985988716925 -2.434127321127245
upperneck 17.107078044385272 -4.041479606411315 2.2610705792257417
head 8.206389010871339 -1.8243986820138065 0.7648709433395069
lclavicle -1.6788237545583563e-15 -3.594449078004138e-15
lhumerus -39.28607987830852 -6.898509669961677 89.93508939741896
lradius 64.71676356865737
lwrist 13.147731114922777
lhand -29.532866845784483 12.383883473967881
lfingers 7.125019999999999
lthumb -2.973965438365472 42.416410037090316
rclavicle -1.6767867406522704e-15 -3.592999935631757e-15
rhumerus -37.67813358963195 -6.084365338995151 -89.66765739935884
rradius 56.79857388774218
rwrist -1.7554878928526816
rhand -18.08698566976758 27.428034127269623
rfingers 7.125019999999999
rthumb 7.83377860147683 -1.7790586380871625
81
root 0.4610355778966656 17.169188563935585 39.05106855986721 2.0473146009426255 0.18354014612597364 3.9402190887587123
lfemur -4.930466856750753 -3.24478647910877 -22.552939211615154
ltibia 43.910492384582334
lfoot -3.3142690700369375 -1.8525336114587194
ltoes -4.803650125928462
rfemur -29.675981173601365 2.9065352158425752 24.92120702440465
rtibia 60.2579025113922
rfoot 0.1187382023764827 -12.517007021441339
rtoes 2.998255181813874
lowerback 13.56011968006171 -0.46299874656317336 -2.172729321838718
upperback -0.5274454252341026 -0.798938329936886 1.1670882751159781
thorax -8.190125628238938 -0.26209081770933385 3.6228730721283116
lowerneck -17.549156263642036 -3.2386561655124875 -2.386940232718011
upperneck 16.89084332035788 -4.059879913587938 2.35630752338082
head 8.110535654541332 -1.838083469470195 0.7943326663020249
lclavicle -1.6772497716214514e-15 -3.5933401834887225e-15
lhumerus -38.71402571320327 -6.979083445614872 89.8242136626574
lradius 65.66568530383924
lwrist 17.731971552271695
lhand -29.42250660010963 11.892750677282281
lfingers 7.125019999999999
lthumb -2.872221742610634 41.776221639129496
rclavicle -1.6774331724809829e-15 -3.593457015845122e-15
rhumerus -38.30826660069026 -5.555084272018522 -89.54996816952793
rradius 57.192222283628524
rwrist -2.000914640539877
rhand -17.852447865031962 27.6783336627095
rfingers 7.125019999999999
rthumb 8.201477373477676 -1.5037634839709213
82
root 0.44406738027521275 17.1061568492881 39.79018574578075 2.406373261415129 -0.012426198124427829 2.8179314357032466
lfemur -3.649455895594242 -3.8047492082023826 -21.50728485921186
ltibia 43.38968364429592
lfoot -3.2361887670084597 -2.4691184539445667
ltoes -5.045440792975332
rfemur -29.13205208074064 3.0531803529615957 26.004996551678083
rtibia 55.11101084489361
rfoot 2.1325413070297756 -13.103601404352304
rtoes 4.49999203235172
lowerback 13.073981474122645 -0.7386467929521561 -1.4849514374558153
upperback -0.6199124764902979 -1.054299208557341 1.543376309859478
thorax -7.860324962519435 -0.3515044330026934 3.5399769284902405
lowerneck -17.423379964160684 -3.2342902103200433 -2.35765586878159
upperneck 17.197773086428846 -4.0900463537836265 2.3933180105862015
head 8.278010612520148 -1.8430082223931687 0.786356972640853
lclavicle -1.6773709123112523e-15 -3.593421017800591e-15
lhumerus -38.20596381229582 -7.285131929492733 89.57196379290505
lradius 66.67826364481017
lwrist 20.54418032389788
lhand -29.669042175062515 11.437859473225135
lfingers 7.125019999999999
lthumb -3.152435461082596 41.44917274131057
rclavicle -1.676685155669487e-15 -3.592928013343241e-15
rhumerus -38.94431602427703 -5.1262342600180055 -89.18115963334698
rradius 57.82410733412971
rwrist -1.717309519962476
rhand -17.542060320469318 27.897309921294404
rfingers 7.125019999999999
rthumb 8.672122770840001 -0.79791457564238
83
root 0.435935705715195 17.16197221198737 40.44049587321752 2.342199206117076 -0.2353038876684158 2.066934890761182
lfemur -2.8691739439888284 -4.09293571671078 -20.950156063859843
ltibia 43.53031500756212
lfoot -0.296910272042616 -3.617474489157895
ltoes -8.3318884969425
rfemur -28.589371673834812 2.75213615446959 26.666570475601315
rtibia 49.65106298067953
rfoot 3.7913412457604867 -13.628860297000488
rtoes 2.5432149345512385
lowerback 12.795341638706539 -0.9703413083949874 -1.0002793321037275
upperback -0.828055530538673 -1.2172791378802374 1.8493947292940827
thorax -7.801952160108963 -0.48174073409293683 3.4393845375689676
lowerneck -17.31747284291704 -3.2356206969250505 -2.361901427951097
upperneck 17.570105124215115 -4.076929700178701 2.321731056324563
head 8.463913904739174 -1.8549568008916348 0.7316778824092194
lclavicle -1.67449525714525e-15 -3.591390520239139e-15
lhumerus -38.174917253372065 -6.911097389157467 89.28620067768044
lradius 67.60707006126822
lwrist 19.934204588626674
lhand -29.62170238504768 11.574983097057997
lfingers 7.125019999999999
lthumb -3.0183045217711437 41.483334951401766
rclavicle -1.6760014543267103e-15 -3.592444605670757e-15
rhumerus -39.609545848354195 -5.100081835055972 -88.64808809004066
rradius 58.074379326814324
rwrist -0.7927685894094316
rhand -17.456714677794864 27.66865158372919
rfingers 7.125019999999999
rthumb 8.900884345250647 -0.9476437338428284
84
root 0.45689311960878254 17.30239435296112 40.623717635277494 2.7572246090493424 0.6205738582911254 1.8345625440875772
lfemur -2.891859815307358 -4.809465228109567 -20.75181367673465
ltibia 43.60847561690741
lfoot 5.900389278663596 -5.513029434725116
ltoes -9.981679614456981
rfemur -28.193661655230144 1.6524720947029148 26.441934595794606
rtibia 43.849355483336524
rfoot 4.874138591711944 -13.945858490252027
rtoes 3.5906081204991143
lowerback 12.193038164471522 -1.4059354675578208 -0.5844231765048922
upperback -1.3364934686709735 -1.682183865286204 2.001409936665914
thorax -7.772139742938606 -0.658012705127307 3.268915855231775
lowerneck -17.11752463758714 -3.2664049592307434 -2.4171012596139305
upperneck 17.888668324412855 -4.110291985653705 2.2251896595076706
head 8.505196246874045 -1.8850348411622913 0.6767410482301593
lclavicle -1.6711533691168694e-15 -3.589024410031166e-15
lhumerus -38.69727913854152 -6.52166340013126 88.98888797848358
lradius 68.84812898369184
lwrist 17.670498396094203
lhand -29.055326265639323 11.999486501188862
lfingers 7.125019999999999
lthumb -1.9580754278910617 42.114810698744066
rclavicle -1.6756551506573343e-15 -3.592199660886655e-15
rhumerus -40.69135600564157 -5.545605013041275 -87.84483621157197
rradius 58.463960594384936
rwrist -0.33413842629250157
rhand -17.34080099341322 27.528573430900618
rfingers 7.125019999999999
rthumb 8.934748586773653 -1.4122364394630917
85
root 0.4802618251426096 17.474100957325845 40.976543781658286 3.0425552197116277 1.3759341794721418 1.7294368158787767
lfemur -3.23854558268404 -5.2366850970243295 -20.83180229255674
ltibia 43.61578079621402
lfoot 13.102078065951233 -7.2599340606992655
ltoes -9.644046122650495
rfemur -27.50917136351339 0.8985454714754812 26.232534918730774
rtibia 38.21779828183563
rfoot 5.021316472308764 -13.757940573841207
rtoes 3.409087439998561
lowerback 11.850317001978603 -1.645537032603499 -0.438692895253437
upperback -1.618886186473268 -1.9591230687994268 2.1188803740235005
thorax -7.540664937698119 -0.7761334640062052 3.217772080383231
lowerneck -17.12897204672689 -3.307038384815333 -2.4528807601696756
upperneck 18.33829037232054 -4.143255641481509 2.333215952923159
head 8.66123208653323 -1.918744258384488 0.6853924161840959
lclavicle -1.6738883049534172e-15 -3.590959874369656e-15
lhumerus -39.36724992489991 -6.531096387457739 88.79043105062522
lradius 70.32751198206962
lwrist 16.853380406444284
lhand -28.57638054654457 12.3294393496254
lfingers 7.125019999999999
lthumb -1.4304123522979713 42.51731513579608
rclavicle -1.6792039643990716e-15 -3.594709081525073e-15
rhumerus -41.66977051786374 -6.1092653736935665 -86.82797863573393
rradius 58.83191732110719
rwrist -0.15832043610317514
rhand -17.156868516717036 27.68235750349111
rfingers 7.125019999999999
rthumb 9.029525139596466 -1.4325077892456894
